<svg xmlns="http://www.w3.org/2000/svg" xmlns:svg="http://www.w3.org/2000/svg" xmlns:xlink="http://www.w3.org/1999/xlink" id="svg8" width="135mm" height="70mm" version="1.1" viewBox="0 0 135 70"><defs id="defs2"><linearGradient id="linearGradient1950"><stop style="stop-color:#f79d00;stop-opacity:1" id="stop1946" offset="0"/><stop style="stop-color:#d99506;stop-opacity:1" id="stop1948" offset="1"/></linearGradient><linearGradient id="linearGradient1914-1"><stop id="stop1918" offset="0" style="stop-color:#003454;stop-opacity:1"/><stop id="stop1920" offset="1" style="stop-color:#f79d00;stop-opacity:.96943229"/></linearGradient><meshgradient id="meshgradient1797" x="29.711" y="77.928" gradientUnits="userSpaceOnUse"><meshrow id="meshrow1799"><meshpatch id="meshpatch1801"><stop style="stop-color:#fff;stop-opacity:1" id="stop1803" path="c 34.1238,0 68.2477,0 102.371,0"/><stop style="stop-color:#000;stop-opacity:1" id="stop1805" path="c 0,8.25756 0,16.5151 0,24.7727"/><stop style="stop-color:#fff;stop-opacity:1" id="stop1807" path="c -34.1238,0 -68.2477,0 -102.371,0"/><stop style="stop-color:#000;stop-opacity:1" id="stop1809" path="c 0,-8.25756 0,-16.5151 0,-24.7727"/></meshpatch></meshrow></meshgradient><linearGradient id="linearGradient1916" x1="31.336" x2="130.457" y1="90.314" y2="90.314" gradientTransform="matrix(1.0012917,0,0,1.0012916,-25.958062,168.25214)" gradientUnits="userSpaceOnUse" xlink:href="#linearGradient1914-1"/><radialGradient id="radialGradient1954" cx="115.076" cy="100.224" r="4.608" fx="115.076" fy="100.224" gradientTransform="matrix(-0.50906324,0.97739048,-0.46179512,-0.24106043,196.02819,195.20205)" gradientUnits="userSpaceOnUse" xlink:href="#linearGradient1950"/></defs><metadata id="metadata5"/><g id="layer1" transform="translate(0,-227)"><text style="font-style:normal;font-variant:normal;font-weight:700;font-stretch:normal;font-size:28.49195862px;line-height:1.25;font-family:sans-serif;-inkscape-font-specification:'sans-serif Bold';text-align:start;letter-spacing:0;word-spacing:0;baseline-shift:baseline;text-anchor:start;fill:url(#linearGradient1916);fill-opacity:1;stroke:none;stroke-width:3.25486255;stroke-opacity:1" id="text876" x="3.373" y="269.054" transform="scale(0.92280107,1.0836572)" xml:space="preserve"><tspan id="tspan874" x="3.373" y="269.054" style="font-style:normal;font-variant:normal;font-weight:700;font-stretch:normal;line-height:.69999999;font-family:sans-serif;-inkscape-font-specification:'sans-serif Bold';text-align:start;letter-spacing:0;baseline-shift:baseline;text-anchor:start;fill:url(#linearGradient1916);fill-opacity:1;stroke:none;stroke-width:3.25486255;stroke-opacity:1">SPLAB</tspan></text><ellipse style="fill:none;fill-opacity:.04366814;stroke:url(#radialGradient1954);stroke-width:3.00387478;stroke-miterlimit:4;stroke-dasharray:none;stroke-opacity:1" id="path878" cx="88.303" cy="285.575" rx="3.11" ry="3.066"/></g><g id="layer2" transform="translate(0,-227)"><ellipse style="fill:#ff0;fill-opacity:0;stroke:#f79d00;stroke-width:4.75868893;stroke-miterlimit:4;stroke-dasharray:none;stroke-opacity:1" id="path130" cx="97.299" cy="253.438" rx="6.156" ry="6.163"/><ellipse style="fill:#000;fill-opacity:1;stroke:none;stroke-width:.52853853;stroke-miterlimit:4;stroke-dasharray:none;stroke-opacity:1" id="path939" cx="97.299" cy="253.438" rx="1.493" ry="1.495"/><path style="fill:#f79d00;fill-opacity:1;stroke:none;stroke-width:.22592229px;stroke-linecap:butt;stroke-linejoin:miter;stroke-opacity:1" id="path971" d="m 95.881001,245.03913 0.549572,-2.0533 h 1.587439 l 0.538763,2.01297 z"/><path style="fill:#f79d00;fill-opacity:1;stroke:none;stroke-width:.22592229px;stroke-linecap:butt;stroke-linejoin:miter;stroke-opacity:1" id="path971-5" d="m 105.63209,252.00928 2.051,0.55017 v 1.58922 l -2.01072,0.53938 z"/><path style="fill:#f79d00;fill-opacity:1;stroke:none;stroke-width:.22592229px;stroke-linecap:butt;stroke-linejoin:miter;stroke-opacity:1" id="path971-56" d="m 91.82628,246.94921 -0.549551,-2.0533 1.374754,-0.79461 1.471955,1.4736 z"/><path style="fill:#f79d00;fill-opacity:1;stroke:none;stroke-width:.22592229px;stroke-linecap:butt;stroke-linejoin:miter;stroke-opacity:1" id="path971-2" d="m 89.274777,250.54317 -1.501437,-1.50312 0.79373,-1.3763 2.010708,0.53938 z"/><path style="fill:#f79d00;fill-opacity:1;stroke:none;stroke-width:.22592229px;stroke-linecap:butt;stroke-linejoin:miter;stroke-opacity:1" id="path971-9" d="m 90.779065,258.85615 -2.050998,0.55017 -0.793719,-1.37629 1.471945,-1.47361 z"/><path style="fill:#f79d00;fill-opacity:1;stroke:none;stroke-width:.22592229px;stroke-linecap:butt;stroke-linejoin:miter;stroke-opacity:1" id="path971-1" d="m 94.368366,261.4112 -1.501426,1.50312 -1.374764,-0.79461 0.538763,-2.01297 z"/><path style="fill:#f79d00;fill-opacity:1;stroke:none;stroke-width:.22592229px;stroke-linecap:butt;stroke-linejoin:miter;stroke-opacity:1" id="path971-27" d="m 102.67263,259.99038 0.54955,2.05329 -1.37475,0.79461 -1.47196,-1.47359 z"/><path style="fill:#f79d00;fill-opacity:1;stroke:none;stroke-width:.22592229px;stroke-linecap:butt;stroke-linejoin:miter;stroke-opacity:1" id="path971-0" d="m 105.22414,256.48225 1.50143,1.50312 -0.79373,1.37629 -2.01071,-0.53938 z"/><path style="fill:#f79d00;fill-opacity:1;stroke:none;stroke-width:.22592229px;stroke-linecap:butt;stroke-linejoin:miter;stroke-opacity:1" id="path971-93" d="m 103.80561,248.08346 2.05099,-0.55018 0.79373,1.3763 -1.47195,1.4736 z"/><path style="fill:#f79d00;fill-opacity:1;stroke:none;stroke-width:.22592229px;stroke-linecap:butt;stroke-linejoin:miter;stroke-opacity:1" id="path971-6" d="m 100.21566,245.52909 1.50144,-1.50312 1.37476,0.79461 -0.53877,2.01297 z"/><path style="fill:#f79d00;fill-opacity:1;stroke:none;stroke-width:.22592229px;stroke-linecap:butt;stroke-linejoin:miter;stroke-opacity:1" id="path971-06" d="m 88.919447,254.92669 -2.050998,-0.55018 v -1.58922 l 2.010719,-0.53936 z"/><path style="fill:#f79d00;fill-opacity:1;stroke:none;stroke-width:.22592229px;stroke-linecap:butt;stroke-linejoin:miter;stroke-opacity:1" id="path971-26" d="m 98.642318,261.81962 -0.549562,2.05329 h -1.587439 l -0.538763,-2.01297 z"/></g><g id="layer3" transform="translate(0,-227)"><ellipse style="fill:#000;fill-opacity:0;stroke:#fff;stroke-width:.5106414;stroke-miterlimit:4;stroke-dasharray:none;stroke-opacity:1" id="path937" cx="97.299" cy="253.438" rx="6.145" ry="6.152"/><ellipse style="fill:#ff0;fill-opacity:0;stroke:#f79d00;stroke-width:5.58021975;stroke-miterlimit:4;stroke-dasharray:none;stroke-opacity:1" id="path130-3" cx="117.823" cy="244.256" rx="7.219" ry="7.227"/><ellipse style="fill:#000;fill-opacity:1;stroke:none;stroke-width:.6197843;stroke-miterlimit:4;stroke-dasharray:none;stroke-opacity:1" id="path939-6" cx="117.823" cy="244.256" rx="1.751" ry="1.753"/><path style="fill:#f79d00;fill-opacity:1;stroke:none;stroke-width:.26492506px;stroke-linecap:butt;stroke-linejoin:miter;stroke-opacity:1" id="path971-7" d="m 116.16042,234.40776 0.64444,-2.40778 h 1.86149 l 0.63178,2.36049 z"/><path style="fill:#f79d00;fill-opacity:1;stroke:none;stroke-width:.26492506px;stroke-linecap:butt;stroke-linejoin:miter;stroke-opacity:1" id="path971-5-5" d="M 127.59491,242.58121 130,243.22637 v 1.86358 l -2.35785,0.63249 z"/><path style="fill:#f79d00;fill-opacity:1;stroke:none;stroke-width:.26492506px;stroke-linecap:butt;stroke-linejoin:miter;stroke-opacity:1" id="path971-56-3" d="m 111.4057,236.64758 -0.64443,-2.40778 1.6121,-0.93178 1.72606,1.728 z"/><path style="fill:#f79d00;fill-opacity:1;stroke:none;stroke-width:.26492506px;stroke-linecap:butt;stroke-linejoin:miter;stroke-opacity:1" id="path971-2-5" d="m 108.41371,240.862 -1.76064,-1.76261 0.93075,-1.6139 2.35784,0.63249 z"/><path style="fill:#f79d00;fill-opacity:1;stroke:none;stroke-width:.26492506px;stroke-linecap:butt;stroke-linejoin:miter;stroke-opacity:1" id="path971-9-6" d="m 110.17769,250.61012 -2.40507,0.64515 -0.93075,-1.6139 1.72606,-1.728 z"/><path style="fill:#f79d00;fill-opacity:1;stroke:none;stroke-width:.26492506px;stroke-linecap:butt;stroke-linejoin:miter;stroke-opacity:1" id="path971-1-2" d="m 114.38665,253.60627 -1.76064,1.76261 -1.6121,-0.93179 0.63179,-2.36048 z"/><path style="fill:#f79d00;fill-opacity:1;stroke:none;stroke-width:.26492506px;stroke-linecap:butt;stroke-linejoin:miter;stroke-opacity:1" id="path971-27-9" d="m 124.12454,251.94016 0.64443,2.40776 -1.6121,0.93179 -1.72606,-1.72799 z"/><path style="fill:#f79d00;fill-opacity:1;stroke:none;stroke-width:.26492506px;stroke-linecap:butt;stroke-linejoin:miter;stroke-opacity:1" id="path971-0-1" d="m 127.11653,247.82638 1.76064,1.76262 -0.93075,1.6139 -2.35784,-0.6325 z"/><path style="fill:#f79d00;fill-opacity:1;stroke:none;stroke-width:.26492506px;stroke-linecap:butt;stroke-linejoin:miter;stroke-opacity:1" id="path971-93-2" d="m 125.45311,237.97765 2.40508,-0.64517 0.93075,1.61391 -1.72607,1.728 z"/><path style="fill:#f79d00;fill-opacity:1;stroke:none;stroke-width:.26492506px;stroke-linecap:butt;stroke-linejoin:miter;stroke-opacity:1" id="path971-6-7" d="m 121.2434,234.9823 1.76065,-1.76261 1.6121,0.93178 -0.63178,2.36049 z"/><path style="fill:#f79d00;fill-opacity:1;stroke:none;stroke-width:.26492506px;stroke-linecap:butt;stroke-linejoin:miter;stroke-opacity:1" id="path971-06-0" d="m 107.99703,246.00229 -2.40508,-0.64517 v -1.86357 l 2.35786,-0.63249 z"/><path style="fill:#f79d00;fill-opacity:1;stroke:none;stroke-width:.26492506px;stroke-linecap:butt;stroke-linejoin:miter;stroke-opacity:1" id="path971-26-9" d="m 119.39845,254.08518 -0.64444,2.40778 h -1.86149 l -0.63178,-2.36049 z"/><ellipse style="fill:#000;fill-opacity:0;stroke:#fff;stroke-width:.5987975;stroke-miterlimit:4;stroke-dasharray:none;stroke-opacity:1" id="path937-3" cx="117.823" cy="244.256" rx="7.206" ry="7.214"/><ellipse style="fill:#ff0;fill-opacity:0;stroke:#f79d00;stroke-width:4.04984188;stroke-miterlimit:4;stroke-dasharray:none;stroke-opacity:1" id="path130-6" cx="175.639" cy="229.365" rx="5.239" ry="5.244" transform="matrix(0.96585326,0.25908972,-0.25854861,0.96599825,0,0)"/><ellipse style="fill:#000;fill-opacity:1;stroke:none;stroke-width:.44980821;stroke-miterlimit:4;stroke-dasharray:none;stroke-opacity:1" id="path939-0" cx="175.639" cy="229.365" rx="1.271" ry="1.272" transform="matrix(0.96585326,0.25908972,-0.25854861,0.96599825,0,0)"/><path style="fill:#f79d00;fill-opacity:1;stroke:none;stroke-width:.19226922px;stroke-linecap:butt;stroke-linejoin:miter;stroke-opacity:1" id="path971-62" d="m 111.02173,259.85585 0.90353,-1.56671 1.30494,0.35005 v 1.77356 z"/><path style="fill:#f79d00;fill-opacity:1;stroke:none;stroke-width:.19226922px;stroke-linecap:butt;stroke-linejoin:miter;stroke-opacity:1" id="path971-5-6" d="m 117.50397,267.73585 1.56496,0.90454 -0.34965,1.30641 -1.77158,-10e-6 z"/><path style="fill:#f79d00;fill-opacity:1;stroke:none;stroke-width:.19226922px;stroke-linecap:butt;stroke-linejoin:miter;stroke-opacity:1" id="path971-56-1" d="m 107.26832,260.5319 v -1.80909 l 1.30494,-0.35005 0.88579,1.53594 z"/><path style="fill:#f79d00;fill-opacity:1;stroke:none;stroke-width:.19226922px;stroke-linecap:butt;stroke-linejoin:miter;stroke-opacity:1" id="path971-2-8" d="m 104.38012,262.92365 -0.90352,-1.56671 0.95529,-0.95636 1.53422,0.88678 z"/><path style="fill:#f79d00;fill-opacity:1;stroke:none;stroke-width:.19226922px;stroke-linecap:butt;stroke-linejoin:miter;stroke-opacity:1" id="path971-9-7" d="m 103.78771,270.08899 h -1.80706 l -0.34966,-1.30641 1.53422,-0.88678 z"/><path style="fill:#f79d00;fill-opacity:1;stroke:none;stroke-width:.19226922px;stroke-linecap:butt;stroke-linejoin:miter;stroke-opacity:1" id="path971-1-9" d="m 106.1761,272.98085 -1.56495,0.90454 -0.95528,-0.95637 0.88578,-1.53594 z"/><path style="fill:#f79d00;fill-opacity:1;stroke:none;stroke-width:.19226922px;stroke-linecap:butt;stroke-linejoin:miter;stroke-opacity:1" id="path971-27-2" d="m 113.31517,273.64405 -10e-6,1.80908 -1.30494,0.35006 -0.88579,-1.53594 z"/><path style="fill:#f79d00;fill-opacity:1;stroke:none;stroke-width:.19226922px;stroke-linecap:butt;stroke-linejoin:miter;stroke-opacity:1" id="path971-0-0" d="m 116.18448,271.32286 0.90352,1.56671 -0.95528,0.95635 -1.53422,-0.88677 z"/><path style="fill:#f79d00;fill-opacity:1;stroke:none;stroke-width:.19226922px;stroke-linecap:butt;stroke-linejoin:miter;stroke-opacity:1" id="path971-93-23" d="m 116.86628,264.1059 h 1.80706 l 0.34965,1.3064 -1.53422,0.88678 z"/><path style="fill:#f79d00;fill-opacity:1;stroke:none;stroke-width:.19226922px;stroke-linecap:butt;stroke-linejoin:miter;stroke-opacity:1" id="path971-6-75" d="m 114.4772,261.21446 1.56496,-0.90453 0.95528,0.95634 -0.88577,1.53595 z"/><path style="fill:#f79d00;fill-opacity:1;stroke:none;stroke-width:.19226922px;stroke-linecap:butt;stroke-linejoin:miter;stroke-opacity:1" id="path971-06-9" d="m 103.12357,266.44874 -1.56495,-0.90454 0.34965,-1.30641 h 1.77158 z"/><path style="fill:#f79d00;fill-opacity:1;stroke:none;stroke-width:.19226922px;stroke-linecap:butt;stroke-linejoin:miter;stroke-opacity:1" id="path971-26-2" d="m 109.59962,274.25903 -0.90353,1.56672 -1.30494,-0.35006 v -1.77355 z"/><ellipse style="fill:#000;fill-opacity:0;stroke:#fff;stroke-width:.43457702;stroke-miterlimit:4;stroke-dasharray:none;stroke-opacity:1" id="path937-2" cx="175.639" cy="229.365" rx="5.23" ry="5.235" transform="matrix(0.96585326,0.25908972,-0.25854861,0.96599825,0,0)"/></g><g id="layer4" transform="translate(0,-227)"><path id="path1765-7" d="m 106.42453,265.88434 c 2.13631,-1.79102 4.92566,-2.10301 6.23018,-0.69685 1.30454,1.40615 0.63017,3.99798 -1.50611,5.789 m -19.031848,15.95373 19.093128,-16.00369 m -23.818599,10.90844 19.100529,-16.00705 m -14.370174,21.09497 c -2.136321,1.79104 -4.925668,2.10305 -6.23018,0.69688 -1.304533,-1.40615 -0.630201,-3.99801 1.50612,-5.78902" style="fill:#4d4d4d;fill-opacity:.04366814;stroke:#636363;stroke-width:.97185582;stroke-miterlimit:4;stroke-dasharray:none;stroke-opacity:1"/></g></svg>